<?xml version="1.0" standalone="no"?><!DOCTYPE svg PUBLIC "-//W3C//DTD SVG 1.1//EN" "http://www.w3.org/Graphics/SVG/1.1/DTD/svg11.dtd">
<svg x="0.0000mm" y="0.0000mm" width="235.4790mm" height="66.1460mm" viewBox="0.0000 0.0000 235.4790 66.1460" version="1.1" xmlns="http://www.w3.org/2000/svg" shape-rendering="crispEdges">
<title>TBarCode - 11.15.0.16817</title>
<desc>BarCode licensed to MEM:TEC-IT Datenverarbeitung GmbH Internal License</desc>
<g fill="rgb(0%,0%,0%)">
</g>
<g fill="rgb(100%,100%,100%)">
<rect x="0.0000" y="0.0000" width="235.4790" height="66.1460" />
</g>
<g fill="rgb(0%,0%,0%)">
</g>
<g fill="rgb(23,162,184)">
<rect x="0.0000" y="0.0000" width="2.6458" height="50.4670" />
<rect x="3.9687" y="0.0000" width="1.3229" height="50.4670" />
<rect x="7.9375" y="0.0000" width="1.3229" height="50.4670" />
<rect x="14.5521" y="0.0000" width="1.3229" height="50.4670" />
<rect x="17.1979" y="0.0000" width="2.6458" height="50.4670" />
<rect x="23.8125" y="0.0000" width="1.3229" height="50.4670" />
<rect x="29.1041" y="0.0000" width="1.3229" height="50.4670" />
<rect x="34.3958" y="0.0000" width="5.2917" height="50.4670" />
<rect x="41.0104" y="0.0000" width="1.3229" height="50.4670" />
<rect x="43.6562" y="0.0000" width="2.6458" height="50.4670" />
<rect x="51.5937" y="0.0000" width="1.3229" height="50.4670" />
<rect x="54.2395" y="0.0000" width="1.3229" height="50.4670" />
<rect x="58.2083" y="0.0000" width="1.3229" height="50.4670" />
<rect x="62.1770" y="0.0000" width="1.3229" height="50.4670" />
<rect x="64.8229" y="0.0000" width="2.6458" height="50.4670" />
<rect x="72.7604" y="0.0000" width="1.3229" height="50.4670" />
<rect x="75.4062" y="0.0000" width="5.2917" height="50.4670" />
<rect x="83.3437" y="0.0000" width="1.3229" height="50.4670" />
<rect x="87.3124" y="0.0000" width="1.3229" height="50.4670" />
<rect x="93.9270" y="0.0000" width="2.6458" height="50.4670" />
<rect x="97.8958" y="0.0000" width="1.3229" height="50.4670" />
<rect x="101.8645" y="0.0000" width="1.3229" height="50.4670" />
<rect x="105.8333" y="0.0000" width="2.6458" height="50.4670" />
<rect x="109.8020" y="0.0000" width="3.9687" height="50.4670" />
<rect x="116.4166" y="0.0000" width="1.3229" height="50.4670" />
<rect x="121.7082" y="0.0000" width="3.9687" height="50.4670" />
<rect x="126.9999" y="0.0000" width="2.6458" height="50.4670" />
<rect x="130.9687" y="0.0000" width="2.6458" height="50.4670" />
<rect x="138.9062" y="0.0000" width="1.3229" height="50.4670" />
<rect x="141.5520" y="0.0000" width="1.3229" height="50.4670" />
<rect x="145.5207" y="0.0000" width="2.6458" height="50.4670" />
<rect x="150.8124" y="0.0000" width="1.3229" height="50.4670" />
<rect x="153.4582" y="0.0000" width="1.3229" height="50.4670" />
<rect x="160.0728" y="0.0000" width="1.3229" height="50.4670" />
<rect x="166.6874" y="0.0000" width="2.6458" height="50.4670" />
<rect x="170.6561" y="0.0000" width="1.3229" height="50.4670" />
<rect x="174.6249" y="0.0000" width="2.6458" height="50.4670" />
<rect x="182.5624" y="0.0000" width="1.3229" height="50.4670" />
<rect x="185.2082" y="0.0000" width="1.3229" height="50.4670" />
<rect x="189.1769" y="0.0000" width="1.3229" height="50.4670" />
<rect x="191.8228" y="0.0000" width="2.6458" height="50.4670" />
<rect x="197.1144" y="0.0000" width="1.3229" height="50.4670" />
<rect x="203.7290" y="0.0000" width="2.6458" height="50.4670" />
<rect x="207.6978" y="0.0000" width="2.6458" height="50.4670" />
<rect x="211.6665" y="0.0000" width="2.6458" height="50.4670" />
<rect x="218.2811" y="0.0000" width="2.6458" height="50.4670" />
<rect x="224.8957" y="0.0000" width="3.9687" height="50.4670" />
<rect x="230.1873" y="0.0000" width="1.3229" height="50.4670" />
<rect x="232.8332" y="0.0000" width="2.6458" height="50.4670" />
</g>
<g fill="rgb(23,162,184)">
<text x="117.7395" y="63.2062" transform="rotate(360 117.7395,63.2062)" text-anchor="middle" font-family="Arial" font-size="14.1111" >Donasi-Online</text>
</g>
</svg>
